<svg width="42" height="42" viewBox="0 0 42 42" fill="none" xmlns="http://www.w3.org/2000/svg">
<path d="M23.4463 23.4463L39.0773 23.4463C39.4194 23.4463 39.7582 23.3789 40.0742 23.2479C40.3903 23.117 40.6775 22.9251 40.9194 22.6832C41.1613 22.4413 41.3532 22.1541 41.4841 21.838C41.615 21.5219 41.6824 21.1832 41.6824 20.8411C41.6824 20.499 41.615 20.1602 41.484 19.8441C41.3531 19.5281 41.1612 19.2409 40.9193 18.999C40.6774 18.7571 40.3902 18.5652 40.0741 18.4343C39.758 18.3033 39.4193 18.236 39.0772 18.236L23.4464 18.236L23.4464 2.60521C23.4464 2.2631 23.379 1.92434 23.2481 1.60826C23.1172 1.29219 22.9253 1.00499 22.6834 0.763077C22.4415 0.521161 22.1543 0.329259 21.8382 0.19833C21.5222 0.0674013 21.1834 8.6256e-06 20.8413 8.28095e-10C20.4992 -8.62394e-06 20.1604 0.0673671 19.8444 0.19828C19.5283 0.329193 19.2411 0.52108 18.9992 0.762984C18.7573 1.00489 18.5654 1.29207 18.4344 1.60814C18.3035 1.92421 18.2361 2.26297 18.2361 2.60508L18.2361 18.2361L2.60521 18.236C2.26309 18.236 1.92432 18.3034 1.60824 18.4343C1.29216 18.5652 1.00496 18.7571 0.763047 18.999C0.521131 19.2409 0.329235 19.5281 0.198311 19.8442C0.0673869 20.1603 -1.56552e-07 20.4991 0 20.8412C3.16171e-07 21.5321 0.274478 22.1948 0.763051 22.6833C1.00497 22.9253 1.29216 23.1172 1.60824 23.2481C1.92432 23.379 2.26309 23.4464 2.60521 23.4464L18.2361 23.4463L18.236 39.0772C18.236 39.7681 18.5105 40.4308 18.999 40.9193C19.4876 41.4079 20.1503 41.6824 20.8412 41.6824C21.5321 41.6824 22.1948 41.4079 22.6834 40.9193C23.1719 40.4308 23.4464 39.7681 23.4464 39.0772L23.4463 23.4463Z" fill="#888888ff"/>
</svg>
