<svg width="269" height="147" viewBox="0 0 269 147" fill="none" xmlns="http://www.w3.org/2000/svg">
<path d="M39.6016 35.8857C41.8483 31.9943 46.0003 29.5972 50.4937 29.5972L86.2793 29.5972C90.7727 29.5972 94.9247 31.9943 97.1714 35.8857L115.064 66.877C117.311 70.7683 117.311 75.5627 115.064 79.4541L97.1714 110.445C94.9247 114.337 90.7727 116.734 86.2793 116.734H50.4937C46.0003 116.734 41.8483 114.337 39.6016 110.445L21.7088 79.4541C19.4621 75.5627 19.4621 70.7683 21.7088 66.877L39.6016 35.8857Z" fill="#141621"/>
<g filter="url(#filter0_d_90_10329)">
<path d="M84.9222 51.3648C85.6791 49.6606 87.7269 48.3189 87.7269 48.3189C85.1865 47.6531 82.7015 48.0749 81.2645 48.5274C80.4261 47.6196 77.0573 39.2052 63.5872 40.6265C63.5872 40.6265 66.9931 42.4901 69.0529 45.8991C69.0529 45.8991 68.184 45.8436 67.6262 45.8568C53.0297 46.2011 40.6089 58.805 40.4667 73.4051C40.3713 83.2292 45.3671 91.8909 52.976 96.918C54.3315 97.8137 55.1425 99.3336 55.1425 100.958V101.831C55.1425 104.152 57.0249 106.035 59.3469 106.035H77.2501C79.5717 106.035 81.4541 104.152 81.4541 101.831V100.96C81.4541 99.3521 82.2377 97.8286 83.5808 96.944C91.1406 91.9685 96.1314 83.4089 96.1314 73.6822C96.1314 64.5435 91.7246 56.4382 84.9222 51.3648Z" fill="url(#paint0_linear_90_10329)"/>
</g>
<path d="M86.2103 72.2114C86.2103 75.6471 84.1476 78.4319 81.6029 78.4319C79.0582 78.4319 76.9955 75.6471 76.9955 72.2114C76.9955 68.776 79.0582 65.9909 81.6029 65.9909C84.1476 65.9909 86.2103 68.776 86.2103 72.2114Z" fill="#151725"/>
<path d="M81.9686 68.5748C81.9686 69.4932 81.2238 70.238 80.305 70.238C79.3862 70.238 78.6417 69.4932 78.6417 68.5748C78.6417 67.656 79.3862 66.9112 80.305 66.9112C81.2238 66.9112 81.9686 67.656 81.9686 68.5748Z" fill="white"/>
<path d="M60.1186 72.2114C60.1186 75.6471 58.0559 78.4319 55.5112 78.4319C52.9669 78.4319 50.9041 75.6471 50.9041 72.2114C50.9041 68.776 52.9669 65.9909 55.5112 65.9909C58.0559 65.9909 60.1186 68.776 60.1186 72.2114Z" fill="#151725"/>
<path d="M55.8769 68.5748C55.8769 69.4932 55.132 70.238 54.2136 70.238C53.2948 70.238 52.5504 69.4932 52.5504 68.5748C52.5504 67.656 53.2948 66.9112 54.2136 66.9112C55.132 66.9112 55.8769 67.656 55.8769 68.5748Z" fill="white"/>
<path d="M88.5747 85.6394C79.92 85.6394 72.9034 78.6469 72.9034 70.0213C72.9034 61.3954 79.92 54.4033 88.5747 54.4033C97.2295 54.4033 104.246 61.3954 104.246 70.0213C104.246 78.6469 97.2295 85.6394 88.5747 85.6394ZM48.1982 85.6394C39.5431 85.6394 32.5273 78.6469 32.5273 70.0213C32.5273 61.3954 39.5431 54.4033 48.1982 54.4033C56.853 54.4033 63.8692 61.3954 63.8692 70.0213C63.8692 78.6469 56.853 85.6394 48.1982 85.6394ZM88.5747 52.0361C81.8978 52.0361 76.0722 55.6528 72.951 61.0249C71.9239 59.5844 70.239 58.6415 68.3352 58.6415C66.4657 58.6415 64.8084 59.5508 63.7764 60.9466C60.6446 55.6175 54.8426 52.0361 48.1982 52.0361C38.2316 52.0361 30.1521 60.0884 30.1521 70.0213C30.1521 79.9543 38.2316 88.0066 48.1982 88.0066C58.1648 88.0066 66.2444 79.9543 66.2444 70.0213C66.2444 67.8143 65.8437 65.7009 65.1135 63.7468C65.3718 62.2054 66.7158 61.0253 68.3352 61.0253C70.0234 61.0253 71.4166 62.3076 71.5866 63.9467C70.9037 65.8444 70.529 67.8889 70.529 70.0213C70.529 79.9543 78.6081 88.0066 88.5747 88.0066C98.5413 88.0066 106.621 79.9543 106.621 70.0213C106.621 60.0884 98.5413 52.0361 88.5747 52.0361Z" fill="white"/>
<path d="M68.9602 90.2546C68.8009 90.2546 68.6405 90.2489 68.479 90.2372C66.3284 90.0807 64.3219 88.8233 63.2434 86.9559C62.8475 86.2711 63.0819 85.3947 63.767 84.9988C64.4521 84.6033 65.3285 84.8377 65.7241 85.5227C66.3256 86.5635 67.4883 87.2924 68.6871 87.3795C69.8036 87.4617 71.2413 87.0366 71.9456 85.6063C72.2956 84.8964 73.1557 84.605 73.8643 84.9543C74.5739 85.304 74.8656 86.163 74.5163 86.8726C73.4858 88.9631 71.3399 90.2546 68.9602 90.2546Z" fill="#151725"/>
<path d="M136.583 75.2845C135.385 75.2845 134.39 75.176 133.597 74.959C132.814 74.742 132.182 74.473 131.7 74.1522C131.229 73.822 130.865 73.4964 130.61 73.1756C130.526 73.0529 130.45 72.935 130.384 72.8218C130.318 72.7085 130.271 72.5811 130.242 72.4396C130.205 72.2509 130.167 72.0055 130.129 71.7036C130.092 71.3922 130.087 71.0337 130.115 70.6279C130.125 70.4581 130.158 70.3401 130.214 70.2741C130.28 70.1986 130.389 70.142 130.54 70.1042C130.813 70.0382 131.167 69.9816 131.601 69.9344C132.045 69.8778 132.361 69.8495 132.55 69.8495C132.748 69.8495 132.908 69.8872 133.031 69.9627C133.153 70.0382 133.3 70.1656 133.47 70.3448C133.658 70.543 133.984 70.7978 134.446 71.1091C134.909 71.4111 135.621 71.5621 136.583 71.5621C137.508 71.5621 138.206 71.3686 138.678 70.9818C139.15 70.5949 139.386 70.057 139.386 69.3682C139.386 69.0002 139.273 68.6558 139.046 68.335C138.829 68.0047 138.428 67.6792 137.843 67.3584C137.258 67.0281 136.423 66.6837 135.338 66.3252C133.545 65.7213 132.252 64.9711 131.46 64.0747C130.667 63.1783 130.271 61.9328 130.271 60.3381C130.271 59.0171 130.592 57.9131 131.233 57.0261C131.875 56.1391 132.762 55.4692 133.894 55.0163C135.026 54.5633 136.333 54.3369 137.815 54.3369C138.957 54.3369 139.9 54.4737 140.646 54.7473C141.4 55.0115 141.985 55.3135 142.401 55.6532C142.816 55.9834 143.085 56.2524 143.207 56.4599C143.283 56.5826 143.33 56.677 143.349 56.743C143.377 56.7996 143.396 56.8798 143.406 56.9836C143.434 57.2761 143.443 57.6017 143.434 57.9602C143.424 58.3188 143.391 58.7246 143.335 59.1775C143.306 59.3284 143.255 59.4322 143.179 59.4889C143.113 59.536 143.009 59.5596 142.868 59.5596C141.952 59.5785 141.245 59.5313 140.745 59.4181C140.546 59.3709 140.414 59.3237 140.348 59.2766C140.282 59.2294 140.197 59.1539 140.094 59.0501C139.943 58.8708 139.702 58.6632 139.372 58.4273C139.051 58.182 138.532 58.0593 137.815 58.0593C136.824 58.0593 136.121 58.2858 135.706 58.7387C135.291 59.1822 135.083 59.6823 135.083 60.239C135.083 60.8995 135.39 61.4185 136.003 61.7959C136.616 62.1639 137.584 62.5838 138.905 63.0556C140.009 63.4425 140.957 63.8624 141.75 64.3153C142.542 64.7682 143.146 65.3485 143.561 66.0562C143.986 66.7639 144.198 67.6981 144.198 68.8587C144.198 70.3024 143.863 71.5007 143.193 72.4538C142.533 73.4068 141.627 74.1192 140.476 74.591C139.334 75.0533 138.037 75.2845 136.583 75.2845ZM160.348 61.9375C160.697 61.5129 161.235 61.1024 161.961 60.7061C162.697 60.3003 163.73 60.0975 165.061 60.0975C166.948 60.0975 168.312 60.5834 169.151 61.5553C169.991 62.5272 170.411 63.9851 170.411 65.9288V74.1947C170.411 74.4777 170.35 74.6759 170.227 74.7891C170.114 74.8929 169.916 74.9448 169.633 74.9448H166.717C166.434 74.9448 166.231 74.8929 166.108 74.7891C165.995 74.6759 165.938 74.4777 165.938 74.1947V66.6648C165.938 65.608 165.745 64.8532 165.358 64.4002C164.971 63.9379 164.391 63.7067 163.617 63.7067C162.928 63.7067 162.381 63.8624 161.975 64.1738C161.579 64.4757 161.296 64.8862 161.126 65.4052V74.1947C161.126 74.4777 161.065 74.6759 160.942 74.7891C160.829 74.8929 160.631 74.9448 160.348 74.9448H157.432C157.149 74.9448 156.946 74.8929 156.823 74.7891C156.71 74.6759 156.654 74.4777 156.654 74.1947V66.6648C156.654 65.6363 156.441 64.8862 156.017 64.4144C155.592 63.9426 155.035 63.7067 154.346 63.7067C153.695 63.7067 153.172 63.8671 152.775 64.1879C152.379 64.5087 152.072 64.9145 151.855 65.4052V74.1947C151.855 74.4777 151.794 74.6759 151.671 74.7891C151.558 74.8929 151.36 74.9448 151.077 74.9448H148.161C147.878 74.9448 147.675 74.8929 147.553 74.7891C147.439 74.6759 147.383 74.4777 147.383 74.1947V62.3338C147.383 62.1073 147.43 61.9328 147.524 61.8101C147.722 61.5459 147.958 61.277 148.232 61.0033C148.515 60.7297 148.859 60.4372 149.265 60.1258C149.388 60.0314 149.506 59.9842 149.619 59.9842C149.723 59.9842 149.841 60.0314 149.973 60.1258C150.369 60.4372 150.709 60.7344 150.992 61.0175C151.275 61.3005 151.525 61.5931 151.742 61.895H151.813C152.134 61.4893 152.634 61.0882 153.313 60.6919C153.993 60.2956 154.964 60.0975 156.229 60.0975C157.437 60.0975 158.333 60.2815 158.918 60.6495C159.503 61.008 159.98 61.4374 160.348 61.9375ZM177.997 75.2987C176.61 75.2987 175.506 74.9118 174.685 74.1381C173.874 73.3549 173.468 72.2792 173.468 70.911C173.468 70.2033 173.596 69.5475 173.85 68.9436C174.115 68.3303 174.568 67.7924 175.209 67.3301C175.86 66.8583 176.766 66.4808 177.927 66.1978C179.097 65.9147 180.588 65.7496 182.399 65.7024C182.399 64.8437 182.182 64.2257 181.748 63.8482C181.324 63.4708 180.682 63.2821 179.823 63.2821C179.05 63.2821 178.417 63.4142 177.927 63.6784C177.436 63.9426 177.129 64.1219 177.007 64.2162C176.875 64.3295 176.714 64.3719 176.525 64.3436C176.271 64.3059 175.997 64.2398 175.705 64.1455C175.421 64.0511 175.115 63.9426 174.785 63.8199C174.737 63.8011 174.685 63.7727 174.629 63.735C174.572 63.6878 174.539 63.6218 174.53 63.5368C174.53 63.4897 174.535 63.4331 174.544 63.367C174.553 63.2915 174.577 63.1594 174.615 62.9707C174.652 62.782 174.709 62.5508 174.785 62.2772C174.86 61.9941 174.931 61.7771 174.997 61.6261C175.082 61.4657 175.223 61.3147 175.421 61.1732C175.582 61.0411 176.068 60.8288 176.879 60.5362C177.691 60.2437 178.866 60.0975 180.404 60.0975C184.64 60.0975 186.759 62.1592 186.759 66.2827V74.2937C186.759 74.473 186.707 74.6287 186.603 74.7608C186.509 74.8835 186.344 74.9448 186.108 74.9448H183.985C183.834 74.9448 183.697 74.926 183.574 74.8882C183.461 74.841 183.352 74.7561 183.249 74.6334L182.371 73.5011H182.272C181.838 74.1333 181.253 74.591 180.517 74.8741C179.79 75.1571 178.95 75.2987 177.997 75.2987ZM179.554 72.015C180.422 72.015 181.078 71.7932 181.522 71.3498C181.965 70.9063 182.248 70.4486 182.371 69.9768V68.4058C181.059 68.4058 180.073 68.5096 179.413 68.7171C178.762 68.9153 178.328 69.1795 178.111 69.5098C177.894 69.8306 177.785 70.1797 177.785 70.5571C177.785 71.1044 177.955 71.4866 178.295 71.7036C178.634 71.9112 179.054 72.015 179.554 72.015ZM194.911 63.1405H194.968C195.676 61.1779 196.949 60.1965 198.789 60.1965C199.025 60.1965 199.219 60.2107 199.37 60.239C199.521 60.2579 199.624 60.2768 199.681 60.2956C199.823 60.3428 199.893 60.4513 199.893 60.6212V64.0322C199.893 64.3247 199.724 64.405 199.384 64.2728C199.271 64.2257 199.106 64.1785 198.889 64.1313C198.681 64.0747 198.388 64.0464 198.011 64.0464C197.039 64.0464 196.279 64.405 195.732 65.1221C195.185 65.8298 194.911 66.7969 194.911 68.0236V74.1947C194.911 74.4777 194.85 74.6759 194.727 74.7891C194.614 74.8929 194.416 74.9448 194.133 74.9448H191.217C190.934 74.9448 190.731 74.8929 190.609 74.7891C190.495 74.6759 190.439 74.4777 190.439 74.1947V62.3338C190.439 62.1073 190.486 61.9328 190.58 61.8101C190.778 61.5459 191.014 61.277 191.288 61.0033C191.571 60.7297 191.915 60.4372 192.321 60.1258C192.397 60.0692 192.472 60.0314 192.548 60.0125C192.623 59.9937 192.689 59.9842 192.746 59.9842C192.878 59.9842 193.01 60.0314 193.142 60.1258C193.925 60.7391 194.473 61.2628 194.784 61.6969C194.869 61.8101 194.911 61.9422 194.911 62.0932V63.1405ZM208.598 75.2987C205.446 75.2987 203.871 73.6615 203.871 70.3873V63.7492H202.271C201.988 63.7492 201.79 63.6925 201.677 63.5793C201.573 63.4566 201.521 63.2538 201.521 62.9707V61.2298C201.521 60.9467 201.573 60.7485 201.677 60.6353C201.79 60.5127 201.988 60.4513 202.271 60.4513H203.871V58.1726C203.871 57.9461 203.918 57.7715 204.012 57.6489C204.408 57.1299 204.989 56.5685 205.753 55.9646C205.885 55.8702 206.003 55.823 206.107 55.823C206.22 55.823 206.333 55.8702 206.447 55.9646C206.852 56.2759 207.192 56.5685 207.466 56.8421C207.749 57.1157 207.989 57.3847 208.188 57.6489C208.282 57.7715 208.329 57.9461 208.329 58.1726V60.4513H210.834C211.117 60.4513 211.311 60.5127 211.415 60.6353C211.528 60.7485 211.584 60.9467 211.584 61.2298V62.9707C211.584 63.2538 211.528 63.4566 211.415 63.5793C211.311 63.6925 211.117 63.7492 210.834 63.7492H208.329V69.6088C208.329 71.1186 208.876 71.8734 209.971 71.8734C210.141 71.8734 210.296 71.8593 210.438 71.831C210.58 71.7932 210.702 71.7555 210.806 71.7178C211.004 71.6423 211.141 71.614 211.216 71.6328C211.301 71.6517 211.377 71.7555 211.443 71.9442L212.264 74.1381C212.349 74.374 212.292 74.5438 212.094 74.6476C211.952 74.7136 211.608 74.8363 211.061 75.0156C210.523 75.2043 209.702 75.2987 208.598 75.2987ZM219.567 74.1947C219.567 74.4777 219.506 74.6759 219.383 74.7891C219.27 74.8929 219.072 74.9448 218.789 74.9448H215.774C215.491 74.9448 215.288 74.8929 215.165 74.7891C215.052 74.6759 214.996 74.4777 214.996 74.1947V56.9129C214.996 56.6392 215.043 56.4316 215.137 56.2901C215.562 55.6673 216.156 55.0115 216.92 54.3227C217.062 54.2095 217.185 54.1529 217.288 54.1529C217.402 54.1529 217.52 54.2095 217.642 54.3227C218.057 54.6813 218.407 55.0257 218.69 55.3559C218.973 55.6768 219.218 55.9881 219.426 56.2901C219.52 56.4411 219.567 56.6487 219.567 56.9129V62.7867H219.893C221.072 62.7867 222.03 62.6263 222.766 62.3055C223.502 61.9752 224.068 61.5364 224.464 60.9892C224.861 60.4324 225.13 59.8144 225.271 59.135C225.422 58.4556 225.498 57.7621 225.498 57.0544V56.9129C225.498 56.6392 225.545 56.4316 225.639 56.2901C226.064 55.6673 226.658 55.0115 227.423 54.3227C227.564 54.2095 227.687 54.1529 227.791 54.1529C227.904 54.1529 228.022 54.2095 228.144 54.3227C228.56 54.6813 228.909 55.0257 229.192 55.3559C229.475 55.6768 229.72 55.9881 229.928 56.2901C230.022 56.4411 230.069 56.6487 230.069 56.9129V57.0544C230.069 57.8187 229.994 58.6113 229.843 59.4322C229.692 60.2437 229.423 61.0128 229.036 61.7393C228.659 62.4659 228.121 63.0886 227.423 63.6076C226.734 64.1172 225.842 64.4521 224.748 64.6125V64.7116C225.729 65.023 226.602 65.542 227.366 66.2685C228.14 66.9857 228.805 67.8066 229.362 68.7313C229.928 69.656 230.39 70.5854 230.749 71.5196C231.107 72.4538 231.362 73.2888 231.513 74.0248C231.589 74.374 231.589 74.6146 231.513 74.7467C231.438 74.8788 231.258 74.9448 230.975 74.9448H227.508C227.026 74.9448 226.743 74.7231 226.658 74.2796C226.517 73.5625 226.238 72.7557 225.823 71.8593C225.417 70.9534 224.908 70.0806 224.295 69.2408C223.681 68.401 222.997 67.7075 222.242 67.1602C221.497 66.6129 220.714 66.3393 219.893 66.3393H219.567V74.1947ZM233.325 55.6956C233.325 55.573 233.362 55.4645 233.438 55.3701C233.513 55.2757 233.613 55.1531 233.735 55.0021C233.999 54.7002 234.306 54.384 234.655 54.0538C235.004 53.7141 235.358 53.3886 235.717 53.0772C235.943 52.8979 236.113 52.8083 236.226 52.8083C236.34 52.8083 236.514 52.8979 236.75 53.0772C237.514 53.7377 238.165 54.3793 238.703 55.0021C238.826 55.1436 238.925 55.2663 239 55.3701C239.085 55.4645 239.128 55.573 239.128 55.6956C239.128 55.8183 239.085 55.9268 239 56.0212C238.925 56.1155 238.821 56.2429 238.689 56.4033C238.434 56.6958 238.137 57.0119 237.797 57.3516C237.458 57.6819 237.109 57.998 236.75 58.2999C236.618 58.4132 236.514 58.4887 236.439 58.5264C236.363 58.5547 236.292 58.5689 236.226 58.5689C236.16 58.5689 236.089 58.5547 236.014 58.5264C235.948 58.4887 235.839 58.4132 235.688 58.2999C235.311 57.998 234.957 57.6819 234.627 57.3516C234.297 57.0119 233.999 56.6864 233.735 56.375C233.613 56.224 233.513 56.1061 233.438 56.0212C233.362 55.9268 233.325 55.8183 233.325 55.6956ZM238.448 74.1947C238.448 74.4777 238.387 74.6759 238.264 74.7891C238.151 74.8929 237.953 74.9448 237.67 74.9448H234.754C234.471 74.9448 234.268 74.8929 234.146 74.7891C234.032 74.6759 233.976 74.4777 233.976 74.1947V61.2015C233.976 60.9184 234.032 60.725 234.146 60.6212C234.268 60.5079 234.471 60.4513 234.754 60.4513H237.67C237.953 60.4513 238.151 60.5079 238.264 60.6212C238.387 60.725 238.448 60.9184 238.448 61.2015V74.1947ZM247.422 75.2987C246.167 75.2987 245.096 74.992 244.209 74.3787C243.331 73.7559 242.662 72.902 242.199 71.8168C241.746 70.7223 241.52 69.4626 241.52 68.0378C241.52 66.16 241.85 64.6408 242.511 63.4802C243.181 62.3102 244.119 61.4515 245.327 60.9042C246.544 60.357 247.979 60.0833 249.63 60.0833C250.196 60.0833 250.663 60.1116 251.031 60.1682C251.409 60.2249 251.678 60.2768 251.838 60.3239V55.0446C251.838 54.8181 251.885 54.6435 251.979 54.5209C252.376 54.0019 252.956 53.4405 253.72 52.8366C253.852 52.7422 253.97 52.695 254.074 52.695C254.197 52.695 254.315 52.7422 254.428 52.8366C254.834 53.1479 255.174 53.4405 255.447 53.7141C255.73 53.9877 255.971 54.2567 256.169 54.5209C256.263 54.6435 256.311 54.8181 256.311 55.0446V74.2937C256.311 74.473 256.249 74.6287 256.127 74.7608C256.004 74.8835 255.848 74.9448 255.659 74.9448H253.551C253.4 74.9448 253.263 74.926 253.14 74.8882C253.027 74.841 252.918 74.7561 252.815 74.6334L251.937 73.5011H251.838C251.715 73.6899 251.494 73.9305 251.173 74.223C250.861 74.5061 250.404 74.7561 249.8 74.9731C249.205 75.1902 248.413 75.2987 247.422 75.2987ZM248.795 71.6753C249.644 71.6753 250.309 71.5149 250.791 71.1941C251.281 70.8732 251.63 70.4675 251.838 69.9768V64.0464C251.687 63.952 251.437 63.8388 251.088 63.7067C250.739 63.5746 250.248 63.5085 249.616 63.5085C248.446 63.5085 247.568 63.8907 246.983 64.655C246.398 65.4193 246.106 66.4478 246.106 67.7405C246.106 69.0804 246.351 70.0712 246.842 70.7128C247.332 71.3545 247.983 71.6753 248.795 71.6753Z" fill="black"/>
<path d="M130.088 95.3865V86.3683H131.312V94.2914H135.448V95.3865H130.088ZM139.219 95.5411C138.257 95.5411 137.493 95.2362 136.926 94.6264C136.368 94.008 136.089 93.1448 136.089 92.0369C136.089 91.3669 136.213 90.77 136.462 90.2461C136.72 89.7136 137.076 89.2971 137.532 88.9964C137.987 88.6873 138.515 88.5327 139.116 88.5327C139.76 88.5327 140.293 88.6744 140.714 88.9578C141.143 89.2326 141.465 89.6062 141.68 90.0786C141.895 90.551 142.002 91.0706 142.002 91.6375C142.002 91.9381 141.989 92.2301 141.963 92.5135H137.274C137.351 93.1405 137.57 93.6301 137.931 93.9822C138.292 94.3344 138.768 94.5104 139.361 94.5104C139.747 94.5104 140.095 94.4718 140.405 94.3945C140.714 94.3086 141.01 94.2012 141.293 94.0724L141.564 95.0644C141.255 95.2018 140.907 95.3135 140.52 95.3994C140.134 95.4938 139.7 95.5411 139.219 95.5411ZM137.261 91.5731H140.933C140.933 90.9203 140.77 90.4179 140.443 90.0657C140.117 89.7136 139.666 89.5375 139.09 89.5375C138.592 89.5375 138.18 89.7136 137.854 90.0657C137.527 90.4093 137.33 90.9117 137.261 91.5731ZM146.111 95.5411C145.553 95.5411 145.046 95.3994 144.591 95.1159C144.136 94.8325 143.771 94.4331 143.496 93.9178C143.23 93.3939 143.096 92.7798 143.096 92.0755C143.096 91.4056 143.23 90.8044 143.496 90.2719C143.771 89.7394 144.144 89.3185 144.617 89.0093C145.098 88.6915 145.647 88.5327 146.266 88.5327C146.652 88.5327 147 88.6014 147.309 88.7388C147.627 88.8676 147.902 89.0308 148.134 89.2283V88.6873H149.19V93.7632C149.19 94.0896 149.267 94.3043 149.422 94.4074C149.585 94.5018 149.761 94.5491 149.95 94.5491L149.705 95.4509C148.881 95.4509 148.383 95.1159 148.211 94.446C148.013 94.7208 147.743 94.9742 147.399 95.2061C147.064 95.4294 146.635 95.5411 146.111 95.5411ZM146.369 94.5104C146.695 94.5104 147.004 94.4331 147.296 94.2785C147.588 94.1153 147.833 93.9135 148.031 93.673V90.0786C147.799 89.9154 147.541 89.7866 147.258 89.6921C146.983 89.5891 146.691 89.5375 146.382 89.5375C145.969 89.5375 145.604 89.6449 145.287 89.8596C144.977 90.0657 144.733 90.3578 144.552 90.7357C144.372 91.105 144.282 91.5387 144.282 92.0369C144.282 92.5178 144.372 92.9473 144.552 93.3252C144.733 93.6945 144.982 93.9865 145.299 94.2012C145.617 94.4074 145.974 94.5104 146.369 94.5104ZM151.499 95.3865V88.6873H152.619V90.143C152.731 89.8596 152.881 89.5977 153.07 89.3572C153.259 89.1081 153.495 88.9106 153.779 88.7646C154.062 88.61 154.393 88.5327 154.771 88.5327C154.9 88.5327 155.029 88.5412 155.157 88.5584C155.286 88.567 155.394 88.5842 155.479 88.61L155.132 89.8081C154.968 89.7394 154.775 89.705 154.552 89.705C154.234 89.705 153.929 89.7952 153.637 89.9756C153.354 90.1559 153.118 90.4351 152.929 90.813C152.748 91.1909 152.658 91.6718 152.658 92.2559V95.3865H151.499ZM156.644 95.3865V88.6873H157.765V89.8081C158.006 89.4474 158.311 89.1468 158.68 88.9063C159.058 88.6572 159.504 88.5327 160.02 88.5327C160.775 88.5327 161.338 88.7603 161.707 89.2155C162.085 89.6707 162.274 90.2719 162.274 91.0191V95.3865H161.115V91.1479C161.115 90.667 160.999 90.2805 160.767 89.9884C160.544 89.6964 160.23 89.5504 159.826 89.5504C159.431 89.5504 159.058 89.6921 158.706 89.9756C158.353 90.2504 158.053 90.5768 157.804 90.9547V95.3865H156.644ZM170.476 95.5411C169.831 95.5411 169.32 95.3306 168.943 94.9098C168.573 94.4804 168.389 93.8706 168.389 93.0804V89.9369H167.229V88.932H168.414L168.659 86.8192H169.548V88.932H171.403V89.9369H169.548V93.1706C169.548 93.6687 169.651 94.0166 169.857 94.2141C170.072 94.4117 170.325 94.5104 170.617 94.5104C170.832 94.5104 171.034 94.4761 171.223 94.4074C171.42 94.3386 171.601 94.2571 171.764 94.1626L172.086 95.0902C171.914 95.1932 171.682 95.292 171.39 95.3865C171.098 95.4895 170.793 95.5411 170.476 95.5411ZM175.821 95.5411C175.186 95.5411 174.614 95.3951 174.108 95.103C173.601 94.8024 173.202 94.3902 172.91 93.8663C172.626 93.3338 172.484 92.724 172.484 92.0369C172.484 91.3154 172.63 90.6927 172.923 90.1688C173.215 89.6449 173.614 89.2412 174.121 88.9578C174.627 88.6744 175.194 88.5327 175.821 88.5327C176.448 88.5327 177.011 88.6744 177.509 88.9578C178.016 89.2412 178.415 89.6449 178.707 90.1688C179.008 90.6841 179.158 91.2982 179.158 92.0111C179.158 92.724 179.012 93.3466 178.72 93.8791C178.428 94.4031 178.029 94.811 177.522 95.103C177.024 95.3951 176.457 95.5411 175.821 95.5411ZM175.821 94.5104C176.5 94.5104 177.028 94.2828 177.406 93.8276C177.784 93.3638 177.973 92.7669 177.973 92.0369C177.973 91.5902 177.878 91.1823 177.689 90.813C177.5 90.4351 177.243 90.1345 176.916 89.9111C176.598 89.6793 176.233 89.5633 175.821 89.5633C175.143 89.5633 174.614 89.7866 174.237 90.2332C173.859 90.6798 173.67 91.2725 173.67 92.0111C173.67 92.4577 173.764 92.8743 173.953 93.2608C174.142 93.6387 174.395 93.9436 174.713 94.1755C175.04 94.3988 175.409 94.5104 175.821 94.5104ZM184.691 95.3865V86.3941C185.043 86.3511 185.429 86.3211 185.85 86.3039C186.28 86.2781 186.722 86.2652 187.177 86.2652C187.924 86.2652 188.56 86.3855 189.084 86.626C189.608 86.8579 190.007 87.1799 190.282 87.5922C190.557 88.0044 190.694 88.4768 190.694 89.0093C190.694 89.6535 190.535 90.1989 190.218 90.6455C189.9 91.0921 189.457 91.4357 188.891 91.6761C188.324 91.908 187.667 92.024 186.92 92.024C186.559 92.024 186.224 92.0111 185.915 91.9853V95.3865H184.691ZM187.074 91.0062C187.839 91.0062 188.431 90.8344 188.852 90.4909C189.273 90.1473 189.483 89.6878 189.483 89.1124C189.483 88.5541 189.281 88.1118 188.878 87.7854C188.474 87.4591 187.899 87.2959 187.151 87.2959C186.92 87.2959 186.701 87.3002 186.494 87.3088C186.288 87.3173 186.095 87.3302 185.915 87.3474V90.9418C186.052 90.959 186.22 90.9762 186.417 90.9933C186.615 91.0019 186.834 91.0062 187.074 91.0062ZM194.083 95.5411C193.688 95.5411 193.332 95.4681 193.014 95.3221C192.696 95.1675 192.443 94.9227 192.254 94.5877C192.073 94.2528 191.983 93.819 191.983 93.2865V85.853H193.143V93.1706C193.143 93.6344 193.237 93.9779 193.426 94.2012C193.624 94.4245 193.894 94.5362 194.238 94.5362C194.401 94.5362 194.56 94.519 194.715 94.4847C194.878 94.4417 195.015 94.3945 195.127 94.3429L195.41 95.2834C195.256 95.3521 195.062 95.4122 194.83 95.4638C194.607 95.5153 194.358 95.5411 194.083 95.5411ZM198.876 95.5411C198.318 95.5411 197.811 95.3994 197.356 95.1159C196.901 94.8325 196.536 94.4331 196.261 93.9178C195.995 93.3939 195.862 92.7798 195.862 92.0755C195.862 91.4056 195.995 90.8044 196.261 90.2719C196.536 89.7394 196.91 89.3185 197.382 89.0093C197.863 88.6915 198.413 88.5327 199.031 88.5327C199.418 88.5327 199.765 88.6014 200.075 88.7388C200.392 88.8676 200.667 89.0308 200.899 89.2283V88.6873H201.956V93.7632C201.956 94.0896 202.033 94.3043 202.187 94.4074C202.351 94.5018 202.527 94.5491 202.716 94.5491L202.471 95.4509C201.646 95.4509 201.148 95.1159 200.976 94.446C200.779 94.7208 200.508 94.9742 200.165 95.2061C199.83 95.4294 199.4 95.5411 198.876 95.5411ZM199.134 94.5104C199.46 94.5104 199.77 94.4331 200.062 94.2785C200.354 94.1153 200.598 93.9135 200.796 93.673V90.0786C200.564 89.9154 200.306 89.7866 200.023 89.6921C199.748 89.5891 199.456 89.5375 199.147 89.5375C198.735 89.5375 198.37 89.6449 198.052 89.8596C197.743 90.0657 197.498 90.3578 197.318 90.7357C197.137 91.105 197.047 91.5387 197.047 92.0369C197.047 92.5178 197.137 92.9473 197.318 93.3252C197.498 93.6945 197.747 93.9865 198.065 94.2012C198.383 94.4074 198.739 94.5104 199.134 94.5104ZM204.18 98.3754C203.922 98.3754 203.695 98.3496 203.497 98.2981C203.308 98.2465 203.158 98.1864 203.046 98.1177L203.304 97.1515C203.407 97.2116 203.536 97.2631 203.69 97.3061C203.845 97.349 204.017 97.3705 204.206 97.3705C204.566 97.3705 204.888 97.2545 205.172 97.0226C205.455 96.7907 205.726 96.3355 205.984 95.657L206.28 94.884H205.661L203.046 88.9964L204.077 88.5327L206.576 94.111L208.521 88.5842L209.591 88.9964L207.13 95.7214C206.881 96.4085 206.61 96.9453 206.318 97.3318C206.026 97.7183 205.704 97.9889 205.352 98.1435C205 98.2981 204.609 98.3754 204.18 98.3754Z" fill="#4C4C4C"/>
<defs>
<filter id="filter0_d_90_10329" x="3.8147e-06" y="1.90735e-05" width="136.597" height="146.5" filterUnits="userSpaceOnUse" color-interpolation-filters="sRGB">
<feFlood flood-opacity="0" result="BackgroundImageFix"/>
<feColorMatrix in="SourceAlpha" type="matrix" values="0 0 0 0 0 0 0 0 0 0 0 0 0 0 0 0 0 0 127 0" result="hardAlpha"/>
<feOffset/>
<feGaussianBlur stdDeviation="20.2327"/>
<feComposite in2="hardAlpha" operator="out"/>
<feColorMatrix type="matrix" values="0 0 0 0 0 0 0 0 0 0 0 0 0 0 0 0 0 0 1 0"/>
<feBlend mode="normal" in2="BackgroundImageFix" result="effect1_dropShadow_90_10329"/>
<feBlend mode="normal" in="SourceGraphic" in2="effect1_dropShadow_90_10329" result="shape"/>
</filter>
<linearGradient id="paint0_linear_90_10329" x1="68.2984" y1="106.035" x2="68.2984" y2="40.4652" gradientUnits="userSpaceOnUse">
<stop stop-color="#324EEF"/>
<stop offset="1" stop-color="#68FF95"/>
</linearGradient>
</defs>
</svg>
