<svg width="19" height="15" viewBox="0 0 19 15" fill="none" xmlns="http://www.w3.org/2000/svg">
<path d="M1 6.36397C0.447715 6.36397 -4.82823e-08 6.81168 0 7.36397C4.82823e-08 7.91625 0.447715 8.36397 1 8.36397L1 7.36397L1 6.36397ZM18.7071 8.07107C19.0976 7.68055 19.0976 7.04738 18.7071 6.65686L12.3431 0.292899C11.9526 -0.0976252 11.3195 -0.0976251 10.9289 0.292899C10.5384 0.683424 10.5384 1.31659 10.9289 1.70711L16.5858 7.36397L10.9289 13.0208C10.5384 13.4113 10.5384 14.0445 10.9289 14.435C11.3195 14.8256 11.9526 14.8256 12.3431 14.435L18.7071 8.07107ZM1 7.36397L1 8.36397L18 8.36397L18 7.36397L18 6.36397L1 6.36397L1 7.36397Z" fill="black"/>
</svg>
